<?xml version="1.0" encoding="UTF-8" standalone="no"?>
<svg
   id="Layer_1"
   data-name="Layer 1"
   viewBox="0 0 305.79998 62.880004"
   version="1.1"
   sodipodi:docname="glass-bottles-icon.svg"
   width="305.79999"
   height="62.880001"
   inkscape:version="1.4.2 (ebf0e940d0, 2025-05-08)"
   xmlns:inkscape="http://www.inkscape.org/namespaces/inkscape"
   xmlns:sodipodi="http://sodipodi.sourceforge.net/DTD/sodipodi-0.dtd"
   xmlns="http://www.w3.org/2000/svg"
   xmlns:svg="http://www.w3.org/2000/svg"
   xmlns:rdf="http://www.w3.org/1999/02/22-rdf-syntax-ns#"
   xmlns:cc="http://creativecommons.org/ns#"
   xmlns:dc="http://purl.org/dc/elements/1.1/">
  <defs
     id="defs1">
    <rect
       x="87.855698"
       y="10.955111"
       width="262.76923"
       height="105.4698"
       id="rect2" />
  </defs>
  <sodipodi:namedview
     id="namedview1"
     pagecolor="#ffffff"
     bordercolor="#000000"
     borderopacity="0.25"
     inkscape:showpageshadow="2"
     inkscape:pageopacity="0.0"
     inkscape:pagecheckerboard="0"
     inkscape:deskcolor="#d1d1d1"
     showguides="true"
     inkscape:zoom="2.5538566"
     inkscape:cx="133.13199"
     inkscape:cy="43.267895"
     inkscape:window-width="1896"
     inkscape:window-height="1016"
     inkscape:window-x="0"
     inkscape:window-y="0"
     inkscape:window-maximized="1"
     inkscape:current-layer="Layer_1">
    <sodipodi:guide
       position="139.86142,51.818324"
       orientation="0,-1"
       id="guide1"
       inkscape:locked="false" />
    <sodipodi:guide
       position="128.88618,-53.590215"
       orientation="0,-1"
       id="guide2"
       inkscape:locked="false" />
  </sodipodi:namedview>
  <title
     id="title1">glass-bottles</title>
  <path
     d="m 13.45162,19.553801 a 4.0768331,4.0768331 0 0 1 -0.540181,-2.481772 v -0.173266 0 V 6.018715 H 7.973375 v 11.022737 0 0.183458 a 3.5264606,3.5264606 0 0 1 -0.453547,2.104665 v 0 a 3.1034892,3.1034892 0 0 1 -0.68287,0.794982 3.4958844,3.4958844 0 0 1 -0.881615,0.509605 v 0 a 5.8298714,5.8298714 0 0 0 -1.263818,0.718541 5.6056455,5.6056455 0 0 0 -1.019209,1.019209 v 0 a 6.3904359,6.3904359 0 0 0 -0.800078,1.340259 9.2951795,9.2951795 0 0 0 -0.509604,1.59506 V 58.74236 a 3.0576248,3.0576248 0 0 0 0.249706,1.52881 1.4982362,1.4982362 0 0 0 0.75931,0.67268 2.6499415,2.6499415 0 0 0 1.217954,0.17836 h 10.528421 a 8.8722081,8.8722081 0 0 0 1.646022,-0.0917 2.2269701,2.2269701 0 0 0 1.416699,-0.66758 2.3034107,2.3034107 0 0 0 0.397491,-1.43199 v 0 -33.190515 c -0.214033,-3.17993 -1.905919,-4.076833 -3.220698,-4.749511 A 4.6424937,4.6424937 0 0 1 13.456716,19.558927 Z M 41.097644,40.47305 v 15.23716 a 4.7495106,4.7495106 0 0 1 -0.438259,2.35947 3.2410823,3.2410823 0 0 1 -1.66131,1.52881 l -0.723638,-1.63073 a 1.4880441,1.4880441 0 0 0 0.774599,-0.70835 3.0576248,3.0576248 0 0 0 0.249706,-1.52881 V 40.44247 Z M 7.616652,0.300956 h 5.687183 a 1.482948,1.482948 0 0 1 1.049784,0.43826 v 0 A 1.482948,1.482948 0 0 1 14.791879,1.789 c 0,5.024697 -0.107017,10.059586 -0.107017,15.109763 v 0 0.183458 a 2.7416703,2.7416703 0 0 0 0.259898,1.528812 3.7404944,3.7404944 0 0 0 1.233242,0.825559 c 1.71227,0.891807 3.923952,2.038416 4.178754,6.273227 V 58.98697 a 3.9902004,3.9902004 0 0 1 -0.794983,2.54802 3.9290479,3.9290479 0 0 1 -2.491964,1.30459 10.640534,10.640534 0 0 1 -1.961976,0.11211 H 4.589604 A 4.0258727,4.0258727 0 0 1 2.673492,62.63064 v 0 A 3.2410823,3.2410823 0 0 1 1.012183,61.10183 4.7495106,4.7495106 0 0 1 0.563731,58.69649 V 25.205311 25.006565 A 10.951393,10.951393 0 0 1 1.231313,22.968148 8.245395,8.245395 0 0 1 2.250521,21.245686 7.4096442,7.4096442 0 0 1 3.621356,19.9411 v 0 a 7.6440621,7.6440621 0 0 1 1.630733,-0.95296 v 0 a 1.7377501,1.7377501 0 0 0 0.428068,-0.24461 1.233242,1.233242 0 0 0 0.280282,-0.326147 2.2065859,2.2065859 0 0 0 0.208938,-1.187377 v -0.183458 0 c 0,-5.096041 -0.05606,-10.192082 -0.05606,-15.252452 a 1.5288124,1.5288124 0 0 1 0.453548,-1.05488 v 0 a 1.4931401,1.4931401 0 0 1 1.049784,-0.43826 z m 5.391612,1.788711 H 7.912223 v 2.063897 h 5.096041 V 2.115147 Z M 32.052171,0.300956 h 5.712662 a 1.482948,1.482948 0 0 1 1.019209,0.43826 v 0 A 1.482948,1.482948 0 0 1 39.222301,1.789 c 0,5.024697 -0.101921,10.059586 -0.101921,15.109763 v 0 0.183458 a 2.7416703,2.7416703 0 0 0 0.254802,1.528812 3.8577033,3.8577033 0 0 0 1.233242,0.825559 c 1.717366,0.891807 3.929048,2.038416 4.18385,6.273227 V 58.98697 a 4.0207767,4.0207767 0 0 1 -0.800078,2.54802 3.9137598,3.9137598 0 0 1 -2.491964,1.30459 10.609958,10.609958 0 0 1 -1.95688,0.11211 h -10.51823 a 4.0462569,4.0462569 0 0 1 -1.921207,-0.32105 v 0 a 3.2410823,3.2410823 0 0 1 -1.66131,-1.52881 4.7546066,4.7546066 0 0 1 -0.433163,-2.35947 V 25.205311 25.006565 a 10.946297,10.946297 0 0 1 0.662485,-2.038417 8.4747168,8.4747168 0 0 1 1.019208,-1.722462 7.2720511,7.2720511 0 0 1 1.335163,-1.319874 v 0 a 7.5727175,7.5727175 0 0 1 1.651118,-0.95296 v 0 a 1.6205412,1.6205412 0 0 0 0.428067,-0.239514 1.2536262,1.2536262 0 0 0 0.285378,-0.326147 2.1607216,2.1607216 0 0 0 0.203842,-1.187377 v -0.183458 0 c 0,-5.096041 -0.05606,-10.192083 -0.05606,-15.252452 a 1.5288124,1.5288124 0 0 1 0.458643,-1.044688 v 0 a 1.482948,1.482948 0 0 1 1.054881,-0.43826 z m 5.391612,1.788711 h -5.096042 v 2.063897 h 5.096042 V 2.115147 Z m 0.443355,17.464134 a 4.0768331,4.0768331 0 0 1 -0.545276,-2.481772 v -0.173266 0 -10.880048 h -4.932968 v 11.022737 0 0.183458 a 3.567229,3.567229 0 0 1 -0.453548,2.104665 v 0 a 3.0270486,3.0270486 0 0 1 -0.687966,0.794982 3.4041557,3.4041557 0 0 1 -0.876519,0.509605 5.7126624,5.7126624 0 0 0 -1.289298,0.723637 5.6413178,5.6413178 0 0 0 -1.019208,1.019209 v 0 a 6.6248538,6.6248538 0 0 0 -0.794983,1.340259 9.2900835,9.2900835 0 0 0 -0.509604,1.595061 V 58.74746 a 3.0576248,3.0576248 0 0 0 0.24461,1.52881 1.5288124,1.5288124 0 0 0 0.779694,0.66758 2.6703257,2.6703257 0 0 0 1.22305,0.17836 h 10.528422 a 8.8976883,8.8976883 0 0 0 1.646021,-0.0917 2.2677384,2.2677384 0 0 0 1.4167,-0.66758 2.3136028,2.3136028 0 0 0 0.397491,-1.43199 v 0 -33.190515 c -0.208938,-3.17993 -1.900824,-4.076833 -3.215602,-4.749511 a 4.6577818,4.6577818 0 0 1 -1.90592,-1.431987 z M 16.667222,40.47305 v 15.23716 a 4.805567,4.805567 0 0 1 -0.443356,2.35947 3.200314,3.200314 0 0 1 -1.661309,1.52881 l -0.703254,-1.63583 a 1.5288124,1.5288124 0 0 0 0.774598,-0.70835 3.1238734,3.1238734 0 0 0 0.24461,-1.52881 V 40.43738 Z"
     id="path1"
     style="stroke-width:0.509604;stroke:none;stroke-opacity:1;fill:#000000;fill-opacity:1" />
  <metadata
     id="metadata1">
    <rdf:RDF>
      <cc:Work
         rdf:about="">
        <dc:title>glass-bottles</dc:title>
      </cc:Work>
    </rdf:RDF>
  </metadata>
  <text
     xml:space="preserve"
     id="text2"
     style="font-style:normal;font-variant:normal;font-weight:normal;font-stretch:normal;font-size:53.3333px;font-family:'Adwaita Sans';-inkscape-font-specification:'Adwaita Sans, @opsz=32,wght=700';font-variant-ligatures:normal;font-variant-caps:normal;font-variant-numeric:normal;font-variant-east-asian:normal;font-variation-settings:'opsz' 32, 'wght' 700;text-align:start;writing-mode:lr-tb;direction:ltr;white-space:pre;shape-inside:url(#rect2);display:inline;fill:#000000;fill-opacity:1;stroke:none;stroke-opacity:1"
     transform="translate(-36)"><tspan
       x="87.855469"
       y="60.322818"
       id="tspan1">WaterBois</tspan></text>
</svg>
